# xmcd
#
# Track frame offsets: 
#        150
#        10630
#        28935
#        44190
#        61102
#        72202
#        84982
#        106197
#        126892
#        137805
#        152962
#        170410
#        187810
#        208042
#        221375
#
# Disc length: 3170 seconds
#
# Revision: 3
# Processed by: cddbd v1.5.2PL0 Copyright (c) Steve Scherf et al.
# Submitted via: ExactAudioCopy v0.95b2
#
DISCID=cd0c600f
DTITLE=Cash, Johnny - Unearthed Disc 5: Best of Cash On American
DYEAR=2003
DGENRE=Country
TTITLE0=Delia's Gone(John R. Cash)
TTITLE1=Bird On A Wire(Leonard Cohen)
TTITLE2=Thirteen(Glenn Danzig)
TTITLE3=Rowboat(Beck Hansen)
TTITLE4=The One Rose(Lani McIntire and Del Lyon)
TTITLE5=Rusty Cage(Chris Cornell)
TTITLE6=Southern Accents(Bob McDill and Ronny Scaife)
TTITLE7=Mercy Seat(Nick Cave and Mick Harvey)
TTITLE8=Solitary Man(Neil Diamond)
TTITLE9=Wayfaring Stranger(arr. John R. Cash and John Carter Cash)
TTITLE10=One(Adam Clayton, David Evans, Paul Hewson and Laurence Mullen)
TTITLE11=Hung My Head(Sting)
TTITLE12=The Man Comes Around(John R. Cash)
TTITLE13=We'll Meet Again(Parker Ross and Hugh Charles)
TTITLE14=Hurt(Trent Reznor)
EXTD=YEAR: 2003
EXTT0=
EXTT1=
EXTT2=
EXTT3=
EXTT4=
EXTT5=
EXTT6=
EXTT7=
EXTT8=
EXTT9=
EXTT10=
EXTT11=
EXTT12=
EXTT13=
EXTT14=
PLAYORDER=
